# xmcd
#
# Track frame offsets:
# 150
# 15846
# 43988
# 73541
# 90800
# 120403
# 147749
# 178259
# 206146
# 228570
# 253642
# 284049
#
# Disc length: 4121 seconds
#
#
# Revision: 0
# Processed by: cddbd v1.5.2PL0 Copyright (c) Steve Scherf et al.
# Submitted via: Nero 7, 11, 10, 0 
#
DISCID=b010170c
DTITLE=Los Blancos - Cookin' With The Cat
DYEAR=2004
DGENRE=Blues
TTITLE0=Can't Get Enough Of Your Love
TTITLE1=Honky Tonk Night Time Man
TTITLE2=Born In Chicago
TTITLE3=Nothing From Nothing
TTITLE4=Stop Breakin' Down
TTITLE5=Now I Know
TTITLE6=I Can't Sleep
TTITLE7=Shakin' That Thing
TTITLE8=Big River
TTITLE9=Troubles
TTITLE10=There Was A Time
TTITLE11=When It All Comes Down
EXTD=
EXTT0=Can't Get Enough Of Your Love
EXTT1=Honky Tonk Night Time Man
EXTT2=Born In Chicago
EXTT3=Nothing From Nothing
EXTT4=Stop Breakin' Down
EXTT5=Now I Know
EXTT6=I Can't Sleep
EXTT7=Shakin' That Thing
EXTT8=Big River
EXTT9=Troubles
EXTT10=There Was A Time
EXTT11=When It All Comes Down
PLAYORDER=
